<?xml version="1.0" standalone="no"?>
<!DOCTYPE svg PUBLIC "-//W3C//DTD SVG 20010904//EN"
 "http://www.w3.org/TR/2001/REC-SVG-20010904/DTD/svg10.dtd">
<svg version="1.0" xmlns="http://www.w3.org/2000/svg"
 width="378.000000pt" height="378.000000pt" viewBox="0 0 378.000000 378.000000"
 preserveAspectRatio="xMidYMid meet">

<g transform="translate(0.000000,378.000000) scale(0.100000,-0.100000)"
fill="#ff3333" stroke="none">
<path d="M1933 3541 c-161 -89 -298 -237 -429 -462 -35 -61 -64 -112 -64 -114
0 -2 -15 -36 -34 -77 -123 -268 -231 -665 -277 -1020 -7 -54 -15 -98 -19 -98
-11 0 -33 129 -39 229 -7 109 3 253 22 328 l14 52 -45 -32 c-128 -92 -261
-279 -336 -473 -62 -160 -80 -271 -81 -491 0 -106 -3 -193 -7 -193 -10 0 -58
60 -78 99 -29 57 -49 138 -58 231 l-8 85 -19 -95 c-30 -143 -26 -342 8 -475
104 -395 478 -751 911 -864 94 -25 225 -44 257 -38 17 3 14 5 -12 6 -59 2
-209 49 -279 88 -210 117 -355 296 -412 507 -17 62 -22 109 -22 201 1 259 79
513 215 696 77 104 227 235 246 215 3 -3 1 -11 -4 -18 -15 -19 -60 -147 -79
-225 -22 -96 -29 -266 -14 -349 14 -79 29 -115 30 -72 0 15 9 76 21 135 35
184 138 412 251 559 89 116 118 201 118 347 0 130 -38 260 -109 372 -34 53
-25 58 41 23 82 -43 221 -180 288 -283 157 -241 274 -579 339 -984 12 -68 22
-126 25 -128 10 -11 28 173 25 260 -2 53 -1 97 3 97 12 0 73 -53 135 -119 288
-304 278 -786 -21 -1076 -93 -89 -105 -99 -176 -139 -85 -47 -69 -46 36 3 239
113 455 306 585 524 108 182 135 415 72 624 l-17 58 -7 -65 c-7 -68 -26 -138
-54 -204 -23 -54 -95 -166 -106 -166 -6 0 -6 7 -1 17 5 10 17 50 25 88 62 278
0 721 -139 997 -84 167 -216 327 -343 417 l-60 41 34 -78 c41 -94 80 -240 96
-359 12 -92 7 -270 -10 -333 -5 -19 -15 -54 -21 -77 -6 -24 -14 -43 -19 -43
-5 0 -11 35 -15 78 -24 263 -144 572 -318 815 -117 162 -148 232 -168 377 -23
171 39 417 144 573 14 20 22 37 18 37 -4 0 -31 -13 -59 -29z m-346 -543 c-3
-7 -5 -2 -5 12 0 14 2 19 5 13 2 -7 2 -19 0 -25z m-215 -260 c-8 -8 -9 -4 -5
13 4 13 8 18 11 10 2 -7 -1 -18 -6 -23z m1523 -1816 c-3 -3 -11 0 -18 7 -9 10
-8 11 6 5 10 -3 15 -9 12 -12z m22 -34 c-3 -8 -6 -5 -6 6 -1 11 2 17 5 13 3
-3 4 -12 1 -19z m-16 -45 c-12 -20 -14 -14 -5 12 4 9 9 14 11 11 3 -2 0 -13
-6 -23z m-36 -3 c3 -5 1 -10 -4 -10 -6 0 -11 5 -11 10 0 6 2 10 4 10 3 0 8 -4
11 -10z"/>
</g>
</svg>
