<?xml version="1.0" standalone="no"?>
<!DOCTYPE svg PUBLIC "-//W3C//DTD SVG 20010904//EN"
 "http://www.w3.org/TR/2001/REC-SVG-20010904/DTD/svg10.dtd">
<svg version="1.0" xmlns="http://www.w3.org/2000/svg"
 width="512.000000pt" height="512.000000pt" viewBox="0 0 512.000000 512.000000"
 preserveAspectRatio="xMidYMid meet">

<g transform="translate(0.000000,512.000000) scale(0.100000,-0.100000)"
fill="#38cc87" stroke="none">
<path d="M1690 5109 c-271 -28 -587 -139 -812 -284 -737 -476 -1058 -1382
-776 -2195 76 -222 90 -266 109 -360 61 -306 22 -625 -115 -942 -6 -13 3 -19
51 -30 86 -19 303 -17 378 5 130 38 236 94 328 174 59 51 103 73 147 73 16 0
83 -22 148 -49 222 -94 427 -139 672 -148 821 -30 1541 444 1836 1209 41 106
87 288 105 418 20 145 16 420 -9 560 -69 385 -237 717 -505 997 -402 421 -982
634 -1557 572z m-693 -1637 c64 -33 100 -69 129 -128 24 -48 26 -63 22 -132
-5 -87 -21 -124 -75 -178 -52 -53 -115 -78 -193 -77 -77 0 -122 17 -180 70
-107 95 -120 256 -31 369 75 95 223 129 328 76z m1004 1 c176 -78 213 -317 69
-446 -58 -53 -103 -70 -180 -70 -113 -1 -217 68 -256 168 -26 70 -17 179 21
241 32 51 103 107 159 124 45 14 136 5 187 -17z m978 11 c75 -22 153 -100 175
-173 9 -30 16 -69 16 -86 0 -55 -28 -130 -66 -173 -143 -168 -408 -108 -470
105 -48 164 83 339 257 342 19 1 59 -6 88 -15z"/>
<path d="M4094 3598 c28 -189 34 -432 15 -606 -108 -992 -858 -1788 -1844
-1956 -155 -27 -369 -38 -516 -26 -74 5 -138 10 -142 10 -14 0 39 -86 116
-190 92 -124 256 -288 384 -383 552 -408 1271 -491 1896 -216 127 56 171 52
262 -25 200 -170 440 -237 681 -191 42 8 79 17 82 20 3 3 -4 29 -16 58 -82
200 -112 339 -119 557 -6 213 12 342 80 556 60 187 82 270 106 394 83 431 38
807 -139 1178 -129 269 -303 486 -534 667 -86 66 -289 195 -309 195 -5 0 -7
-17 -3 -42z"/>
</g>
</svg>
