<?xml version="1.0" standalone="no"?>
<!DOCTYPE svg PUBLIC "-//W3C//DTD SVG 20010904//EN"
 "http://www.w3.org/TR/2001/REC-SVG-20010904/DTD/svg10.dtd">
<svg version="1.0" xmlns="http://www.w3.org/2000/svg"
 width="512.000000pt" height="512.000000pt" viewBox="0 0 512.000000 512.000000"
 preserveAspectRatio="xMidYMid meet">

<g transform="translate(0.000000,512.000000) scale(0.100000,-0.100000)"
fill="#38cc87" stroke="none">
<path d="M246 4800 c-63 -25 -112 -71 -142 -135 l-24 -50 0 -855 c0 -838 1
-856 21 -900 27 -60 74 -107 134 -136 l50 -24 408 0 407 0 0 -69 c0 -160 -45
-407 -107 -585 -71 -205 -158 -343 -312 -497 -122 -122 -259 -216 -446 -309
-67 -34 -137 -75 -155 -93 -64 -63 -92 -157 -71 -241 13 -51 200 -452 232
-498 57 -80 166 -121 264 -99 77 17 375 170 530 272 177 116 307 223 456 375
424 435 600 849 674 1589 28 275 36 627 33 1355 l-3 725 -24 47 c-29 57 -61
88 -121 120 l-45 23 -855 2 c-824 2 -857 2 -904 -17z"/>
<path d="M3174 4804 c-54 -19 -119 -76 -147 -128 l-22 -41 -3 -860 c-2 -784
-1 -864 14 -904 23 -60 79 -119 139 -147 50 -24 52 -24 458 -24 l407 0 0 -67
c0 -38 -5 -108 -10 -158 -67 -596 -320 -965 -847 -1231 -178 -90 -229 -145
-240 -258 -6 -68 6 -101 123 -351 111 -236 150 -288 239 -318 99 -34 152 -20
397 105 431 220 771 513 1010 873 230 346 341 705 398 1290 23 239 30 531 30
1256 0 859 4 816 -80 900 -83 83 -37 79 -989 78 -706 0 -842 -3 -877 -15z"/>
</g>
</svg>
