<?xml version="1.0" standalone="no"?>
<!DOCTYPE svg PUBLIC "-//W3C//DTD SVG 20010904//EN"
 "http://www.w3.org/TR/2001/REC-SVG-20010904/DTD/svg10.dtd">
<svg version="1.0" xmlns="http://www.w3.org/2000/svg"
 width="400.000000pt" height="400.000000pt" viewBox="0 0 400.000000 400.000000"
 preserveAspectRatio="xMidYMid meet">

<g transform="translate(0.000000,400.000000) scale(0.100000,-0.100000)"
fill="#38cc87" stroke="none">
<path d="M1305 3884 c-315 -47 -578 -177 -795 -394 -193 -193 -313 -417 -371
-693 -29 -136 -31 -368 -5 -507 54 -277 172 -504 367 -705 201 -207 423 -328
714 -390 111 -24 387 -25 508 -1 181 35 376 116 524 218 84 58 88 57 130 -26
l26 -50 -18 -53 c-26 -74 -12 -113 72 -205 163 -179 884 -916 922 -942 54 -38
116 -39 170 -3 21 14 101 87 179 162 153 148 171 178 157 254 -11 57 -45 95
-667 733 -372 381 -379 386 -468 354 -44 -16 -51 -16 -86 -1 -22 9 -53 30 -71
47 l-31 30 49 76 c300 459 294 1055 -14 1512 -66 98 -226 262 -325 333 -150
108 -326 188 -502 228 -83 19 -388 34 -465 23z m394 -444 c210 -51 408 -186
535 -363 47 -66 118 -207 132 -261 l7 -30 -37 23 c-77 48 -119 53 -473 58
-239 4 -333 2 -333 -6 0 -6 16 -11 35 -11 22 0 43 -8 55 -20 19 -19 20 -33 20
-300 0 -267 -1 -281 -20 -300 -12 -12 -33 -20 -55 -20 -19 0 -35 -4 -35 -10 0
-6 87 -10 240 -10 132 0 240 4 240 9 0 5 -23 11 -52 13 -73 7 -78 18 -78 165
l0 123 108 0 c187 1 320 36 391 103 l34 32 -6 -130 c-14 -319 -162 -585 -421
-756 -171 -112 -325 -154 -544 -146 -188 6 -312 43 -462 135 -142 87 -299 264
-360 406 l-18 44 266 5 c208 3 280 8 326 21 137 38 213 90 261 177 27 48 30
63 30 139 0 76 -3 91 -30 139 -35 63 -89 110 -169 147 -92 42 -186 53 -449 54
l-237 0 15 38 c54 130 203 314 318 391 112 76 275 142 400 162 82 13 272 2
366 -21z m-1057 -624 c4 -6 8 -134 8 -284 l0 -273 -27 -27 -27 -27 -12 31
c-55 135 -59 387 -9 562 15 49 17 52 38 41 12 -7 25 -17 29 -23z m424 -1 c59
-17 94 -51 126 -120 19 -43 23 -66 22 -170 0 -104 -3 -127 -23 -173 -40 -90
-97 -122 -218 -122 -51 0 -64 3 -73 19 -6 12 -10 126 -10 300 l0 281 63 0 c35
0 86 -7 113 -15z m1022 -9 c58 -30 79 -121 46 -192 -24 -50 -82 -74 -177 -74
l-77 0 0 146 0 146 88 -4 c56 -3 99 -11 120 -22z"/>
</g>
</svg>
