<?xml version="1.0" standalone="no"?>
<!DOCTYPE svg PUBLIC "-//W3C//DTD SVG 20010904//EN"
 "http://www.w3.org/TR/2001/REC-SVG-20010904/DTD/svg10.dtd">
<svg version="1.0" xmlns="http://www.w3.org/2000/svg"
 width="750.000000pt" height="150.000000pt" viewBox="0 0 750.000000 150.000000"
 preserveAspectRatio="xMidYMid meet">

<g transform="translate(0.000000,150.000000) scale(0.100000,-0.100000)"
fill="#000000" stroke="none">
<g fill="#ff0000" stroke="none">
<path d="M520 1081 c0 -6 16 -11 35 -11 22 0 43 -8 55 -20 19 -19 20 -33 20
-300 0 -267 -1 -281 -20 -300 -12 -12 -33 -20 -55 -20 -19 0 -35 -5 -35 -11 0
-18 557 -5 642 14 199 46 302 154 302 317 0 159 -94 262 -289 316 -48 14 -120
18 -357 21 -213 4 -298 2 -298 -6z m525 -42 c25 -7 56 -27 81 -54 57 -59 79
-140 71 -267 -8 -146 -40 -211 -122 -249 -47 -22 -174 -26 -193 -7 -9 9 -12
89 -12 300 l0 288 68 0 c37 0 85 -5 107 -11z"/>
</g>
<g fill="#ff0000" stroke="none">
<path d="M4220 1080 c0 -5 15 -10 33 -10 18 0 43 -7 55 -16 22 -15 22 -17 22
-304 0 -287 0 -289 -22 -304 -12 -9 -37 -16 -55 -16 -18 0 -33 -4 -33 -10 0
-6 87 -10 240 -10 153 0 240 4 240 10 0 6 -20 10 -45 10 -76 0 -85 17 -85 165
l0 125 88 0 c280 1 447 72 447 188 0 91 -103 155 -274 172 -136 13 -611 13
-611 0z m547 -49 c50 -23 73 -62 73 -126 0 -101 -57 -145 -190 -145 l-80 0 0
145 0 145 78 0 c54 0 89 -6 119 -19z"/>
</g>
<path d="M6024 1072 c-12 -8 -75 -642 -65 -654 3 -4 25 -4 48 -1 40 5 44 8 54
47 39 148 200 289 279 244 25 -14 25 -14 21 -139 -4 -143 3 -159 67 -159 45 0
140 22 167 38 16 9 6 10 -52 5 -71 -6 -72 -5 -84 21 -10 20 -9 47 1 125 12 90
11 102 -3 125 -24 36 -51 47 -112 47 -96 0 -190 -59 -257 -162 -17 -27 -33
-48 -34 -46 -5 5 36 296 56 401 11 56 20 104 20 109 0 9 -92 9 -106 -1z"/>
<path d="M5662 933 c-3 -10 -16 -54 -27 -98 -18 -71 -23 -80 -45 -83 -100 -11
-126 -29 -34 -24 l56 4 -6 -39 c-4 -21 -8 -77 -9 -124 -2 -96 13 -132 61 -150
36 -14 164 -5 225 17 55 19 51 40 -3 24 -64 -18 -126 -13 -157 14 -27 23 -28
28 -27 113 0 48 4 101 8 117 l7 29 76 -6 c70 -5 134 5 120 20 -4 3 -47 5 -96
4 -49 -1 -91 1 -94 6 -4 7 13 83 39 171 6 21 3 22 -40 22 -35 0 -48 -4 -54
-17z"/>
<path d="M5177 768 c-80 -9 -163 -42 -179 -71 -9 -17 -7 -24 12 -39 21 -17 80
-25 93 -12 3 4 -1 17 -9 29 -14 22 -14 25 5 44 17 17 34 21 86 21 102 0 143
-31 133 -101 -3 -22 -10 -24 -110 -35 -127 -14 -197 -36 -233 -71 -35 -36 -30
-70 14 -100 68 -46 194 -23 275 49 l46 40 0 -29 c0 -19 10 -38 26 -54 23 -21
35 -24 102 -24 54 0 86 6 107 18 l30 17 -60 -6 c-52 -5 -64 -3 -89 17 l-28 22
8 86 c12 124 10 140 -18 168 -31 30 -110 42 -211 31z m133 -188 c0 -20 -66
-84 -105 -101 -49 -22 -118 -25 -135 -5 -19 24 -7 59 26 78 48 28 214 50 214
28z"/>
<g fill="#ff0000" stroke="none">
<path d="M6810 595 l0 -185 25 0 25 0 0 185 0 185 -25 0 -25 0 0 -185z"/>
<path d="M6940 595 l0 -185 25 0 c24 0 25 3 25 57 l0 57 58 -57 c38 -38 66
-57 82 -57 22 0 18 6 -37 63 l-62 62 57 50 c50 44 54 50 34 53 -15 2 -39 -11
-75 -44 l-52 -47 -3 117 c-3 116 -3 116 -27 116 l-25 0 0 -185z"/>
</g>
<path d="M1950 761 c-77 -16 -138 -67 -189 -161 -35 -63 -35 -62 -20 49 13 95
6 111 -49 111 -55 0 -162 -21 -162 -32 0 -5 19 -9 43 -8 80 5 77 7 77 -67 0
-38 -5 -108 -10 -158 -5 -49 -8 -90 -7 -91 1 -1 23 0 49 3 42 5 47 8 52 37 9
48 60 148 96 190 50 56 83 70 157 63 55 -5 64 -4 73 13 11 20 -10 50 -35 50
-7 0 -19 2 -27 4 -7 2 -29 0 -48 -3z"/>
<path d="M2737 758 c-80 -9 -163 -42 -179 -71 -9 -17 -7 -24 12 -39 21 -17 80
-25 93 -12 3 4 -1 17 -9 29 -14 22 -14 25 5 44 17 17 34 21 86 21 102 0 143
-31 133 -101 -3 -22 -10 -24 -110 -35 -127 -14 -197 -36 -233 -71 -35 -36 -30
-70 14 -100 68 -46 194 -23 275 49 l46 40 0 -29 c0 -19 10 -38 26 -54 23 -21
35 -24 102 -24 54 0 86 6 107 18 l30 17 -60 -6 c-52 -5 -64 -3 -89 17 l-28 22
8 86 c12 124 10 140 -18 168 -31 30 -110 42 -211 31z m133 -188 c0 -20 -66
-84 -105 -101 -49 -22 -118 -25 -135 -5 -19 24 -7 59 26 78 48 28 214 50 214
28z"/>
<path d="M3852 758 c-73 -12 -156 -79 -197 -157 -8 -17 -17 -31 -20 -31 -2 0
-3 32 -2 71 2 66 0 72 -26 95 -34 29 -107 33 -165 9 -45 -19 -113 -84 -154
-145 l-29 -45 5 35 c17 111 18 140 6 155 -15 18 -57 19 -151 4 -79 -14 -95
-34 -20 -27 72 7 81 -1 81 -75 0 -34 -5 -102 -10 -152 -5 -49 -8 -90 -7 -91 1
-1 23 0 50 3 40 5 47 9 47 27 0 64 104 216 172 252 33 17 80 18 96 2 14 -14
15 -99 3 -203 -5 -38 -6 -73 -2 -76 3 -3 25 -4 48 -2 38 5 42 8 47 39 16 80
103 206 168 240 36 19 92 18 108 -2 11 -12 11 -33 1 -110 -19 -142 -5 -174 71
-174 41 0 149 27 163 41 7 7 -12 8 -55 3 -86 -8 -95 1 -87 94 3 37 9 88 13
113 5 39 3 49 -17 73 -29 32 -78 45 -137 34z"/>
<path d="M2215 746 c-131 -41 -210 -138 -185 -226 21 -72 88 -111 202 -118 89
-5 154 8 218 45 57 34 37 41 -40 14 -33 -12 -81 -21 -108 -21 -89 1 -177 62
-170 119 3 25 6 26 91 33 145 11 256 45 271 83 9 25 -12 55 -49 71 -42 17
-175 17 -230 0z m146 -26 c21 -12 26 -52 7 -67 -36 -28 -238 -59 -238 -37 0
21 42 76 72 94 36 22 125 27 159 10z"/>
<g fill="#ff0000" stroke="none">
<path d="M6680 430 c0 -16 7 -20 30 -20 23 0 30 4 30 20 0 16 -7 20 -30 20
-23 0 -30 -4 -30 -20z"/>
</g>
</g>
</svg>
