<?xml version="1.0" standalone="no"?>
<!DOCTYPE svg PUBLIC "-//W3C//DTD SVG 20010904//EN"
 "http://www.w3.org/TR/2001/REC-SVG-20010904/DTD/svg10.dtd">
<svg version="1.0" xmlns="http://www.w3.org/2000/svg"
 width="512.000000pt" height="512.000000pt" viewBox="0 0 512.000000 512.000000"
 preserveAspectRatio="xMidYMid meet">

<g transform="translate(0.000000,512.000000) scale(0.100000,-0.100000)"
fill="#fa921b" stroke="none">
<path d="M2494 5102 c-17 -9 -119 -91 -227 -182 l-196 -165 245 -3 c134 -1
354 -1 489 0 l245 3 -196 165 c-108 91 -210 173 -227 183 -40 21 -93 21 -133
-1z"/>
<path d="M1038 4429 c-23 -12 -46 -35 -58 -59 -20 -38 -20 -57 -19 -947 l0
-908 526 -408 525 -407 549 0 548 0 525 408 525 407 0 908 c1 891 1 909 -19
947 -13 26 -34 47 -60 60 -39 20 -55 20 -1522 20 -1457 -1 -1484 -1 -1520 -21z
m1678 -340 c361 -50 673 -275 836 -604 70 -140 98 -261 98 -419 0 -262 -109
-529 -261 -641 -85 -62 -156 -87 -264 -92 -117 -6 -182 16 -262 91 l-56 52
-56 -33 c-115 -69 -266 -87 -386 -44 -233 82 -385 320 -386 602 -1 247 102
444 291 556 113 67 286 86 404 44 33 -11 62 -21 66 -21 3 0 14 16 23 35 47 99
197 100 257 3 19 -32 20 -52 20 -488 0 -515 -2 -500 71 -500 52 0 89 20 133
72 83 97 130 357 92 508 -68 265 -285 482 -562 562 -103 30 -303 32 -404 4
-362 -99 -600 -407 -600 -777 0 -132 24 -231 84 -354 81 -163 206 -286 370
-365 95 -45 173 -67 276 -76 95 -9 144 -32 170 -84 25 -50 25 -90 0 -140 -25
-48 -81 -80 -142 -80 -131 0 -327 53 -467 125 -363 189 -590 561 -591 966 0
297 101 554 303 766 244 257 596 381 943 332z"/>
<path d="M2463 3316 c-53 -17 -89 -46 -129 -102 -98 -138 -66 -386 63 -493
128 -106 280 -21 329 184 17 74 15 176 -6 247 -36 125 -150 198 -257 164z"/>
<path d="M420 3365 c-129 -108 -241 -203 -248 -210 -12 -10 29 -46 233 -205
135 -105 248 -190 251 -188 2 3 3 184 2 403 l-3 398 -235 -198z"/>
<path d="M4460 3160 c0 -220 3 -400 6 -400 7 0 482 368 488 379 5 7 -442 392
-480 414 -12 7 -14 -57 -14 -393z"/>
<path d="M10 1550 c0 -726 2 -1320 5 -1320 10 0 1690 1312 1690 1320 0 8
-1680 1320 -1690 1320 -3 0 -5 -594 -5 -1320z"/>
<path d="M4260 2215 c-465 -361 -845 -661 -845 -665 0 -4 380 -304 845 -665
l845 -657 3 661 c1 364 1 958 0 1322 l-3 661 -845 -657z"/>
<path d="M1115 703 l-897 -698 1171 -3 c644 -1 1698 -1 2342 0 l1172 3 -897
698 -897 697 -548 0 -549 0 -897 -697z"/>
</g>
</svg>
