<?xml version="1.0" standalone="no"?>
<!DOCTYPE svg PUBLIC "-//W3C//DTD SVG 20010904//EN"
 "http://www.w3.org/TR/2001/REC-SVG-20010904/DTD/svg10.dtd">
<svg version="1.0" xmlns="http://www.w3.org/2000/svg"
 width="1600.000000pt" height="1600.000000pt" viewBox="0 0 1600.000000 1600.000000"
 preserveAspectRatio="xMidYMid meet">

<g transform="translate(0.000000,1600.000000) scale(0.100000,-0.100000)"
fill="#fa921b" stroke="none">
<path d="M7785 15994 c-1750 -48 -3427 -664 -4790 -1758 -433 -347 -884 -798
-1231 -1231 -1200 -1495 -1825 -3376 -1754 -5280 36 -958 221 -1841 568 -2705
488 -1218 1290 -2317 2309 -3167 1053 -878 2329 -1476 3668 -1718 77 -14 152
-28 168 -31 l27 -6 0 2791 0 2791 -1017 2 -1018 3 -3 1158 -2 1157 1020 0
1020 0 0 1008 c1 1169 6 1264 85 1639 300 1420 1373 2233 2950 2233 297 0 738
-28 1135 -71 193 -21 602 -76 633 -85 16 -5 17 -61 17 -990 l0 -984 -497 0
c-274 0 -564 -5 -645 -10 -238 -15 -420 -60 -583 -142 -315 -158 -504 -435
-572 -838 -14 -80 -17 -222 -20 -927 l-5 -833 1111 0 c705 0 1111 -4 1111 -10
0 -5 -79 -523 -175 -1150 -96 -628 -175 -1146 -175 -1151 0 -5 -362 -9 -935
-9 l-935 0 0 -2791 0 -2791 28 6 c15 3 90 17 167 31 1339 242 2615 840 3668
1718 397 331 806 747 1123 1142 487 605 900 1312 1186 2025 622 1550 741 3269
341 4900 -274 1117 -800 2180 -1527 3085 -347 433 -798 884 -1231 1231 -1284
1031 -2856 1641 -4490 1743 -183 11 -567 19 -730 15z"/>
</g>
</svg>
