<?xml version="1.0" standalone="no"?>
<!DOCTYPE svg PUBLIC "-//W3C//DTD SVG 20010904//EN"
 "http://www.w3.org/TR/2001/REC-SVG-20010904/DTD/svg10.dtd">
<svg version="1.0" xmlns="http://www.w3.org/2000/svg"
 width="600.000000pt" height="600.000000pt" viewBox="0 0 600.000000 600.000000"
 preserveAspectRatio="xMidYMid meet">

<g transform="translate(0.000000,600.000000) scale(0.100000,-0.100000)"
fill="#fa921b" stroke="none">
<path d="M2650 5745 c-939 -117 -1753 -681 -2169 -1505 -147 -290 -230 -551
-277 -875 -22 -147 -25 -550 -6 -695 82 -615 336 -1144 756 -1578 440 -454
986 -736 1617 -833 193 -30 608 -33 794 -6 333 49 667 156 935 299 267 143
459 286 676 502 322 323 538 670 675 1089 237 719 162 1515 -202 2173 -425
766 -1177 1285 -2061 1420 -146 23 -586 28 -738 9z m1236 -926 c496 -69 890
-459 954 -944 8 -65 11 -325 8 -935 l-3 -845 -27 -100 c-33 -119 -117 -294
-187 -386 -169 -222 -423 -377 -708 -431 -99 -19 -1757 -19 -1858 0 -234 44
-435 146 -597 304 -157 154 -260 341 -311 563 -19 85 -20 128 -24 847 -5 833
0 978 42 1123 31 110 101 258 161 342 173 242 445 412 734 458 110 17 1695 21
1816 4z"/>
<path d="M2060 4459 c-221 -58 -392 -197 -495 -401 -82 -164 -80 -133 -80
-1068 0 -924 -3 -881 74 -1044 90 -192 255 -333 476 -407 l70 -24 857 -3 c927
-3 923 -3 1058 51 102 42 171 88 261 178 76 74 93 99 137 190 84 173 82 142
82 1071 0 767 -1 818 -19 893 -24 101 -49 159 -104 243 -90 137 -239 252 -402
309 l-80 28 -880 2 c-847 2 -883 1 -955 -18z m2020 -313 c68 -34 104 -91 108
-174 4 -83 -23 -142 -87 -187 -56 -40 -157 -48 -217 -17 -107 55 -152 174
-105 278 24 52 94 112 140 120 20 3 41 7 46 9 20 5 71 -7 115 -29z m-849 -274
c177 -47 316 -129 441 -261 169 -179 248 -375 248 -615 0 -463 -342 -840 -813
-896 -397 -47 -806 195 -947 562 -49 126 -63 201 -63 333 0 452 319 820 778
896 80 13 271 3 356 -19z"/>
<path d="M2845 3551 c-286 -83 -469 -375 -412 -655 25 -123 74 -216 160 -301
367 -368 998 -116 997 398 0 51 -7 117 -15 147 -50 189 -200 346 -388 405 -97
31 -247 34 -342 6z"/>
</g>
</svg>
