<?xml version="1.0" standalone="no"?>
<!DOCTYPE svg PUBLIC "-//W3C//DTD SVG 20010904//EN"
 "http://www.w3.org/TR/2001/REC-SVG-20010904/DTD/svg10.dtd">
<svg version="1.0" xmlns="http://www.w3.org/2000/svg"
 width="512.000000pt" height="512.000000pt" viewBox="0 0 512.000000 512.000000"
 preserveAspectRatio="xMidYMid meet">

<g transform="translate(0.000000,512.000000) scale(0.100000,-0.100000)"
fill="#fa921b" stroke="none">
<path d="M2404 4900 c-744 -72 -1362 -623 -1514 -1353 -153 -734 196 -1522
1019 -2301 163 -154 395 -345 540 -445 103 -71 122 -70 240 14 373 264 783
659 1046 1010 499 664 646 1307 440 1921 -168 503 -571 903 -1081 1074 -207
69 -477 100 -690 80z m333 -975 c264 -61 484 -283 550 -553 22 -92 21 -257 -2
-347 -70 -276 -281 -486 -553 -552 -88 -21 -256 -21 -344 0 -272 66 -489 283
-555 555 -21 88 -21 256 0 344 56 230 224 427 440 517 63 25 96 34 217 55 41
7 180 -4 247 -19z"/>
<path d="M1260 1371 c-379 -84 -616 -185 -743 -315 -88 -91 -112 -212 -61
-314 76 -153 329 -290 709 -383 642 -157 1612 -190 2380 -78 727 105 1145 315
1145 573 0 208 -237 370 -715 490 -118 30 -250 56 -284 56 -35 0 -91 -61 -91
-99 0 -72 34 -104 131 -121 216 -38 490 -125 614 -194 70 -40 135 -105 135
-138 0 -33 -76 -99 -165 -142 -239 -116 -614 -202 -1105 -252 -212 -21 -840
-30 -1080 -15 -576 36 -1048 132 -1330 270 -83 41 -160 107 -160 139 0 55 110
135 274 201 105 42 347 109 475 131 73 13 103 29 119 66 22 46 15 83 -22 120
-42 42 -57 42 -226 5z"/>
</g>
</svg>
