<?xml version="1.0" standalone="no"?>
<!DOCTYPE svg PUBLIC "-//W3C//DTD SVG 20010904//EN"
 "http://www.w3.org/TR/2001/REC-SVG-20010904/DTD/svg10.dtd">
<svg version="1.0" xmlns="http://www.w3.org/2000/svg"
 width="512.000000pt" height="512.000000pt" viewBox="0 0 512.000000 512.000000"
 preserveAspectRatio="xMidYMid meet">

<g transform="translate(0.000000,512.000000) scale(0.100000,-0.100000)"
fill="#38cc87" stroke="none">
<path d="M2474 4944 c-52 -19 -111 -74 -135 -128 -16 -36 -19 -68 -19 -256 0
-242 6 -266 75 -333 114 -110 300 -77 378 68 21 38 22 54 22 265 0 211 -1 227
-22 265 -60 111 -183 160 -299 119z"/>
<path d="M975 4321 c-116 -30 -194 -139 -182 -255 3 -30 13 -69 22 -87 10 -19
83 -100 164 -180 127 -127 153 -148 200 -164 137 -45 280 36 312 179 10 44 9
62 -6 112 -16 55 -27 69 -163 207 -81 82 -163 157 -183 167 -42 22 -121 32
-164 21z"/>
<path d="M4017 4316 c-61 -22 -107 -59 -234 -189 -132 -135 -152 -165 -160
-242 -16 -149 117 -281 262 -262 75 11 114 39 266 194 159 160 173 185 172
280 -2 63 -41 143 -90 180 -35 27 -111 53 -152 53 -14 -1 -43 -7 -64 -14z"/>
<path d="M2415 3914 c-259 -40 -429 -103 -625 -232 -103 -68 -275 -238 -347
-343 -100 -147 -181 -334 -219 -509 -26 -119 -27 -419 -1 -538 90 -408 342
-745 697 -931 196 -103 365 -148 580 -158 946 -41 1644 878 1350 1778 -68 207
-172 373 -339 540 -198 198 -396 306 -676 369 -88 20 -349 35 -420 24z"/>
<path d="M320 2787 c-49 -16 -133 -102 -148 -153 -27 -91 -5 -177 61 -242 66
-65 99 -72 326 -72 238 0 269 8 334 80 114 126 74 308 -83 379 -41 19 -64 20
-250 20 -119 -1 -220 -6 -240 -12z"/>
<path d="M4320 2787 c-49 -16 -133 -102 -148 -153 -28 -94 -8 -169 63 -239 69
-69 94 -75 327 -75 226 0 263 8 327 72 96 98 95 235 -4 333 -31 32 -65 55 -91
63 -53 15 -424 15 -474 -1z"/>
<path d="M1190 1489 c-54 -17 -115 -67 -246 -201 -96 -98 -124 -134 -137 -173
-41 -119 6 -239 118 -298 55 -29 155 -29 210 0 22 12 106 88 187 170 136 138
147 152 163 207 21 73 9 143 -35 205 -57 78 -170 117 -260 90z"/>
<path d="M3800 1491 c-82 -27 -149 -92 -170 -167 -17 -59 -7 -135 24 -188 13
-22 87 -103 164 -178 128 -125 145 -138 198 -154 139 -40 277 42 303 182 10
53 1 116 -24 163 -20 38 -294 306 -334 326 -39 19 -125 28 -161 16z"/>
<path d="M2479 946 c-57 -20 -106 -64 -134 -119 -24 -50 -25 -55 -25 -266 0
-243 6 -267 75 -334 114 -110 300 -77 378 68 21 38 22 54 22 265 0 211 -1 227
-22 265 -58 108 -184 160 -294 121z"/>
</g>
</svg>
