<?xml version="1.0" standalone="no"?>
<!DOCTYPE svg PUBLIC "-//W3C//DTD SVG 20010904//EN"
 "http://www.w3.org/TR/2001/REC-SVG-20010904/DTD/svg10.dtd">
<svg version="1.0" xmlns="http://www.w3.org/2000/svg"
 width="512.000000pt" height="512.000000pt" viewBox="0 0 512.000000 512.000000"
 preserveAspectRatio="xMidYMid meet">

<g transform="translate(0.000000,512.000000) scale(0.100000,-0.100000)"
fill="#fa921b" stroke="none">
<path d="M752 4947 l-172 -172 685 -685 685 -685 177 178 178 177 -680 680
c-374 374 -685 680 -690 680 -6 0 -88 -78 -183 -173z"/>
<path d="M2796 4659 c-119 -12 -186 -28 -186 -44 0 -7 14 -73 31 -145 l31
-132 42 7 c119 19 221 26 311 20 635 -42 1120 -529 1160 -1165 6 -94 0 -176
-21 -306 l-6 -42 131 -31 c71 -17 137 -31 145 -31 36 0 65 293 48 473 -31 319
-128 566 -318 812 -318 414 -846 639 -1368 584z"/>
<path d="M268 4463 c-132 -137 -193 -248 -235 -428 -22 -97 -25 -358 -4 -475
118 -682 576 -1457 1285 -2178 650 -661 1408 -1148 2036 -1307 185 -47 276
-58 455 -58 151 0 181 2 267 26 169 45 281 112 418 251 l75 76 -680 681 c-600
600 -694 691 -799 766 -476 341 -930 794 -1247 1245 -61 87 -183 215 -768 801
-383 383 -699 697 -702 697 -3 0 -49 -44 -101 -97z"/>
<path d="M2935 4004 c-11 -1 -50 -6 -87 -9 -57 -6 -68 -10 -68 -25 0 -10 14
-77 31 -149 29 -125 32 -131 52 -125 12 4 63 7 112 7 244 -2 452 -157 526
-393 21 -66 30 -221 15 -267 -6 -20 1 -23 136 -55 79 -19 146 -32 150 -29 4 3
11 49 17 101 53 478 -309 910 -789 942 -41 3 -84 4 -95 2z"/>
<path d="M3580 2125 l-175 -175 685 -685 685 -685 172 172 c95 95 173 177 173
183 0 10 -1350 1365 -1360 1365 -3 0 -84 -79 -180 -175z"/>
</g>
</svg>
