<?xml version="1.0" standalone="no"?>
<!DOCTYPE svg PUBLIC "-//W3C//DTD SVG 20010904//EN"
 "http://www.w3.org/TR/2001/REC-SVG-20010904/DTD/svg10.dtd">
<svg version="1.0" xmlns="http://www.w3.org/2000/svg"
 width="140.000000pt" height="140.000000pt" viewBox="0 0 140.000000 140.000000"
 preserveAspectRatio="xMidYMid meet">

<g transform="translate(0.000000,140.000000) scale(0.100000,-0.100000)"
fill="#fa921b" stroke="none">
<path d="M875 1293 c-33 -8 -45 -24 -45 -58 0 -57 20 -65 161 -65 l124 0 -303
-303 c-167 -167 -302 -311 -302 -320 0 -23 44 -67 67 -67 9 0 153 135 320 302
l303 303 0 -126 c0 -141 8 -159 67 -159 54 0 58 13 61 241 l3 208 -25 26 -25
25 -193 -1 c-106 -1 -202 -4 -213 -6z"/>
<path d="M205 1098 c-49 -18 -84 -47 -108 -91 -22 -41 -22 -48 -22 -422 0
-209 3 -392 8 -407 9 -35 61 -94 101 -116 28 -15 73 -17 421 -17 384 0 391 0
432 22 45 25 74 59 91 112 16 46 16 424 1 454 -23 43 -66 50 -99 17 -19 -19
-20 -33 -20 -234 0 -211 0 -215 -22 -230 -19 -14 -73 -16 -385 -16 -350 0
-364 1 -383 20 -19 19 -20 33 -20 383 0 312 2 366 16 385 15 22 20 22 219 22
133 0 213 4 229 12 47 21 47 85 1 106 -33 15 -417 15 -460 0z"/>
</g>
</svg>
