<?xml version="1.0" standalone="no"?>
<!DOCTYPE svg PUBLIC "-//W3C//DTD SVG 20010904//EN"
 "http://www.w3.org/TR/2001/REC-SVG-20010904/DTD/svg10.dtd">
<svg version="1.0" xmlns="http://www.w3.org/2000/svg"
 width="400.000000pt" height="400.000000pt" viewBox="0 0 400.000000 400.000000"
 preserveAspectRatio="xMidYMid meet">

<g transform="translate(0.000000,400.000000) scale(0.100000,-0.100000)"
fill="#fa921b" stroke="none">
<path d="M1770 3875 c-629 -77 -1183 -471 -1464 -1039 -420 -850 -142 -1881
647 -2406 257 -171 522 -269 827 -305 792 -94 1561 323 1914 1039 420 850 142
1881 -647 2406 -380 253 -828 360 -1277 305z m-445 -949 c104 -32 170 -143
145 -245 -23 -97 -105 -161 -205 -161 -105 0 -182 63 -206 170 -21 92 47 206
140 234 59 19 68 19 126 2z m150 -1181 l0 -630 -210 0 -210 0 -3 620 c-1 341
0 626 3 633 3 10 52 12 212 10 l208 -3 0 -630z m667 533 c-1 -54 2 -98 6 -98
4 1 19 19 35 41 35 51 128 111 209 134 75 21 219 24 299 5 120 -28 212 -98
264 -199 54 -108 58 -140 62 -614 l5 -437 -204 2 -203 3 -5 385 -5 385 -25 50
c-43 86 -124 119 -237 96 -74 -14 -119 -51 -152 -120 l-26 -56 -3 -372 -3
-373 -200 0 -199 0 0 635 0 635 191 -2 191 -3 0 -97z"/>
</g>
</svg>
