<?xml version="1.0" standalone="no"?>
<!DOCTYPE svg PUBLIC "-//W3C//DTD SVG 20010904//EN"
 "http://www.w3.org/TR/2001/REC-SVG-20010904/DTD/svg10.dtd">
<svg version="1.0" xmlns="http://www.w3.org/2000/svg"
 width="512.000000pt" height="512.000000pt" viewBox="0 0 512.000000 512.000000"
 preserveAspectRatio="xMidYMid meet">

<g transform="translate(0.000000,512.000000) scale(0.100000,-0.100000)"
fill="#ffffff" stroke="none">
<path d="M289 4090 c-112 -19 -201 -85 -251 -187 -29 -59 -33 -77 -33 -148 0
-71 4 -88 33 -147 39 -80 101 -138 181 -170 l56 -23 2285 0 2285 0 56 23 c80
32 142 90 181 170 29 59 33 76 33 147 -1 66 -6 91 -28 140 -35 76 -109 146
-185 177 l-57 23 -2255 1 c-1240 1 -2276 -2 -2301 -6z"/>
<path d="M245 2886 c-60 -19 -96 -40 -137 -80 -173 -168 -126 -451 92 -555
l55 -26 2305 0 2305 0 55 26 c142 68 222 222 191 372 -22 111 -90 198 -191
246 l-55 26 -2290 2 c-1827 1 -2298 -1 -2330 -11z"/>
<path d="M287 1700 c-114 -20 -205 -91 -256 -199 -38 -81 -37 -191 2 -276 35
-76 109 -146 185 -177 l57 -23 2285 0 2285 0 57 23 c75 31 150 101 185 177 23
50 28 73 28 140 0 71 -4 89 -33 147 -39 80 -101 138 -181 170 l-56 23 -2255 1
c-1240 1 -2277 -2 -2303 -6z"/>
</g>
</svg>
