<?xml version="1.0" standalone="no"?>
<!DOCTYPE svg PUBLIC "-//W3C//DTD SVG 20010904//EN"
 "http://www.w3.org/TR/2001/REC-SVG-20010904/DTD/svg10.dtd">
<svg version="1.0" xmlns="http://www.w3.org/2000/svg"
 width="512.000000pt" height="512.000000pt" viewBox="0 0 512.000000 512.000000"
 preserveAspectRatio="xMidYMid meet">

<g transform="translate(0.000000,512.000000) scale(0.100000,-0.100000)"
fill="#38cc87" stroke="none">
<path d="M1715 5114 c-16 -2 -70 -9 -120 -15 -534 -65 -1045 -404 -1330 -884
-404 -680 -321 -1559 204 -2152 284 -321 640 -519 1076 -600 137 -25 467 -25
605 1 296 54 558 164 780 328 l65 48 29 -32 c35 -41 76 -125 76 -158 0 -14 -9
-40 -20 -58 -27 -44 -25 -102 5 -163 28 -54 31 -57 814 -867 541 -560 544
-562 643 -562 24 0 62 9 86 20 48 22 409 360 449 422 36 53 43 148 16 209 -15
34 -179 209 -650 695 -347 358 -648 665 -669 682 -21 18 -63 40 -92 49 -52 17
-54 17 -95 -5 -23 -12 -56 -22 -73 -22 -41 0 -122 42 -164 85 l-33 34 59 88
c144 215 247 479 289 743 35 215 30 417 -16 650 -147 741 -762 1329 -1514
1446 -91 14 -364 26 -420 18z m388 -595 c365 -73 684 -310 860 -639 324 -603
113 -1351 -478 -1698 -476 -279 -1099 -207 -1504 174 -484 455 -534 1200 -115
1722 173 217 408 363 701 437 150 38 359 39 536 4z"/>
</g>
</svg>
