<?xml version="1.0" standalone="no"?>
<!DOCTYPE svg PUBLIC "-//W3C//DTD SVG 20010904//EN"
 "http://www.w3.org/TR/2001/REC-SVG-20010904/DTD/svg10.dtd">
<svg version="1.0" xmlns="http://www.w3.org/2000/svg"
 width="840.000000pt" height="880.000000pt" viewBox="0 0 840.000000 880.000000"
 preserveAspectRatio="xMidYMid meet">
<metadata>
Created by potrace 1.16, written by Peter Selinger 2001-2019
</metadata>
<g transform="translate(0.000000,880.000000) scale(0.100000,-0.100000)"
fill="#fa921b" stroke="none">
<path d="M3895 8389 c-823 -69 -1562 -362 -2207 -877 -172 -137 -465 -430
-602 -602 -130 -162 -288 -397 -387 -575 -578 -1037 -658 -2310 -214 -3415
443 -1103 1340 -1948 2465 -2320 1050 -347 2223 -237 3185 299 326 182 618
403 891 675 398 399 685 834 892 1351 532 1336 303 2849 -604 3985 -140 174
-432 467 -604 604 -611 487 -1301 774 -2070 862 -155 18 -598 26 -745 13z
m1555 -1649 c242 -30 461 -128 648 -290 45 -38 90 -70 100 -70 24 0 158 35
257 67 115 37 255 96 364 154 52 27 97 49 102 49 11 0 -44 -130 -87 -207 -81
-146 -212 -291 -347 -386 -31 -22 -55 -42 -53 -45 23 -22 518 110 625 167 33
18 26 2 -37 -82 -135 -179 -282 -330 -455 -466 l-67 -53 0 -151 c-1 -1238
-707 -2431 -1770 -2990 -429 -226 -858 -344 -1370 -378 -596 -39 -1195 79
-1712 337 -122 61 -220 113 -284 154 l-40 25 250 0 c159 0 284 5 341 13 288
43 526 119 774 247 131 68 352 211 359 233 2 8 -10 12 -41 12 -123 0 -323 56
-472 133 -232 120 -442 349 -540 587 -18 46 -32 87 -30 90 3 4 30 3 62 -2 110
-18 443 5 443 31 0 3 -36 16 -80 28 -231 65 -462 226 -613 428 -73 98 -158
270 -192 388 -24 84 -54 311 -44 322 3 3 48 -13 99 -36 107 -46 257 -85 363
-94 71 -6 72 -6 47 12 -241 173 -408 432 -476 735 -23 102 -23 366 -1 466 24
105 61 211 103 294 34 67 37 71 50 53 8 -11 60 -70 116 -132 431 -478 1049
-845 1683 -998 191 -46 607 -106 624 -90 2 3 -1 36 -8 74 -14 86 -14 294 -1
378 27 163 96 339 190 479 63 94 221 254 307 313 243 163 534 235 813 201z"/>
</g>
</svg>
